
<svg width="1920" height="1080" viewBox="0 0 1920 1080" fill="none" xmlns="http://www.w3.org/2000/svg">
<line x1="10.4119" y1="4.37114e-08" x2="10.4118" y2="1080" stroke="#4189CC" stroke-width="2" stroke-dasharray="1 24"/>
<line x1="129.235" y1="4.37114e-08" x2="129.235" y2="1080" stroke="#4189CC" stroke-width="2" stroke-dasharray="1 24"/>
<line x1="248.059" y1="4.37114e-08" x2="248.059" y2="1080" stroke="#4189CC" stroke-width="2" stroke-dasharray="1 24"/>
<line x1="366.882" y1="4.37114e-08" x2="366.882" y2="1080" stroke="#4189CC" stroke-width="2" stroke-dasharray="1 24"/>
<line x1="485.706" y1="4.37114e-08" x2="485.706" y2="1080" stroke="#4189CC" stroke-width="2" stroke-dasharray="1 24"/>
<line x1="604.529" y1="4.37114e-08" x2="604.529" y2="1080" stroke="#4189CC" stroke-width="2" stroke-dasharray="1 24"/>
<line x1="723.353" y1="4.37114e-08" x2="723.353" y2="1080" stroke="#4189CC" stroke-width="2" stroke-dasharray="1 24"/>
<line x1="842.177" y1="4.37114e-08" x2="842.176" y2="1080" stroke="#4189CC" stroke-width="2" stroke-dasharray="1 24"/>
<line x1="961" y1="4.37114e-08" x2="961" y2="1080" stroke="#4189CC" stroke-width="2" stroke-dasharray="1 24"/>
<line x1="1079.82" y1="4.37114e-08" x2="1079.82" y2="1080" stroke="#4189CC" stroke-width="2" stroke-dasharray="1 24"/>
<line x1="1198.65" y1="4.37114e-08" x2="1198.65" y2="1080" stroke="#4189CC" stroke-width="2" stroke-dasharray="1 24"/>
<line x1="1317.47" y1="4.37114e-08" x2="1317.47" y2="1080" stroke="#4189CC" stroke-width="2" stroke-dasharray="1 24"/>
<line x1="1436.29" y1="4.37114e-08" x2="1436.29" y2="1080" stroke="#4189CC" stroke-width="2" stroke-dasharray="1 24"/>
<line x1="1555.12" y1="4.37114e-08" x2="1555.12" y2="1080" stroke="#4189CC" stroke-width="2" stroke-dasharray="1 24"/>
<line x1="1673.94" y1="4.37114e-08" x2="1673.94" y2="1080" stroke="#4189CC" stroke-width="2" stroke-dasharray="1 24"/>
<line x1="1792.76" y1="4.37114e-08" x2="1792.76" y2="1080" stroke="#4189CC" stroke-width="2" stroke-dasharray="1 24"/>
<line x1="1911.59" y1="4.37114e-08" x2="1911.59" y2="1080" stroke="#4189CC" stroke-width="2" stroke-dasharray="1 24"/>
<line x1="1920" y1="1.50003" x2="-8.74227e-08" y2="1.49986" stroke="#4189CC" stroke-width="2" stroke-dasharray="1 24"/>
<line x1="1920" y1="102.5" x2="-8.74227e-08" y2="102.5" stroke="#4189CC" stroke-width="2" stroke-dasharray="1 24"/>
<line x1="1920" y1="203.5" x2="-8.74227e-08" y2="203.5" stroke="#4189CC" stroke-width="2" stroke-dasharray="1 24"/>
<line x1="1920" y1="304.5" x2="-8.74227e-08" y2="304.5" stroke="#4189CC" stroke-width="2" stroke-dasharray="1 24"/>
<line x1="1920" y1="405.5" x2="-8.74227e-08" y2="405.5" stroke="#4189CC" stroke-width="2" stroke-dasharray="1 24"/>
<line x1="1920" y1="506.5" x2="-8.74227e-08" y2="506.5" stroke="#4189CC" stroke-width="2" stroke-dasharray="1 24"/>
<line x1="1920" y1="607.5" x2="-8.74227e-08" y2="607.5" stroke="#4189CC" stroke-width="2" stroke-dasharray="1 24"/>
<line x1="1920" y1="708.5" x2="-8.74227e-08" y2="708.5" stroke="#4189CC" stroke-width="2" stroke-dasharray="1 24"/>
<line x1="1920" y1="809.5" x2="-8.74227e-08" y2="809.5" stroke="#4189CC" stroke-width="2" stroke-dasharray="1 24"/>
<line x1="1920" y1="910.5" x2="-8.74227e-08" y2="910.5" stroke="#4189CC" stroke-width="2" stroke-dasharray="1 24"/>
<line x1="1920" y1="1011.5" x2="-8.74227e-08" y2="1011.5" stroke="#4189CC" stroke-width="2" stroke-dasharray="1 24"/>
</svg>